<?xml version="1.0" encoding="utf-8" ?>
<svg xmlns="http://www.w3.org/2000/svg" xmlns:xlink="http://www.w3.org/1999/xlink" width="1024" height="1024">
	<path fill="#B5CFC3" d="M0 0L1024 0L1024 1024L0 1024L0 0Z"/>
	<path fill="#921C2D" d="M200.745 300.506L268.706 300.668C280.972 300.669 293.37 300.956 305.626 300.464L305.909 300.563C309.407 306.13 313.747 311.954 316.33 317.968C296.382 318.322 276.361 318.027 256.404 318.042C241.702 318.053 226.763 318.563 212.087 317.839C207.376 316.643 178.245 317.528 171.013 317.525C131.278 317.509 91.4716 317.045 51.7449 317.716C51.8782 311.96 51.8812 306.194 51.9454 300.436L200.745 300.506Z"/>
	<path fill="#921C2D" d="M822.851 300.397C835.99 300.55 849.328 300.907 862.45 300.417C899.742 300.403 937.204 301.124 974.476 300.235L974.407 317.594L885.225 317.638C879.346 317.633 857.057 316.803 852.632 317.843C839.357 317.627 826.075 318.129 812.797 318.037L709.621 317.886Q714.06 309.047 719.024 300.491L719.429 300.434C753.851 301.14 788.421 300.668 822.851 300.397Z"/>
	<path fill="#65D0D2" d="M822.851 300.397C825.975 292.88 831.608 285.547 835.955 278.614L858.916 241.5L929.978 124.846C936.763 126.513 959.48 124.816 968.037 124.77C957.955 139.553 949.332 155.121 940.261 170.523L907.979 224.268L874.07 280.364C871.133 285.25 863.598 295.567 862.45 300.417C849.328 300.907 835.99 300.55 822.851 300.397Z"/>
	<path fill="#65D0D2" d="M514.676 942.98Q538.293 901.856 562.719 861.205Q631.328 744.018 702.69 628.488L781.128 497.801L815.387 440.457C819.624 433.444 823.619 426.272 828.013 419.358C831.953 421.067 856.555 419.748 862.899 419.893C844.618 453.154 824.159 485.451 804.693 518.042L685.222 717.764L578.095 897.282L546.138 950.961C541.247 959.043 536.511 967.352 531.163 975.133Q527.107 967.655 522.706 960.375C520.185 956.292 514.594 949.757 513.269 945.639L514.676 942.98Z"/>
	<path fill="#390D1B" d="M531.76 77.122L958.376 77.1403C949.045 93.1185 939.157 108.787 929.978 124.846L858.916 241.5L835.955 278.614C831.608 285.547 825.975 292.88 822.851 300.397C788.421 300.668 753.851 301.14 719.429 300.434L719.024 300.491L657.79 300.419L513.216 300.488C513.917 250.812 513.519 201.073 513.523 151.391L512.619 151.26L513.161 150.969C514.41 148.937 513.807 85.3694 513.893 77.398C519.771 77.5036 525.918 77.7746 531.76 77.122Z"/>
	<path fill="#05495D" d="M748.274 151.494Q779.276 151.717 810.277 151.489C802.059 166.698 792.427 181.14 783.532 195.954L719.429 300.434L719.024 300.491L657.79 300.419C668.612 284.696 677.893 267.713 687.728 251.344L727.14 186.595C734.136 174.918 740.619 162.739 748.274 151.494Z"/>
	<path fill="#921C2D" d="M513.523 151.391L748.274 151.494C740.619 162.739 734.136 174.918 727.14 186.595L687.728 251.344C677.893 267.713 668.612 284.696 657.79 300.419L513.216 300.488C513.917 250.812 513.519 201.073 513.523 151.391Z"/>
	<path fill="#05495D" d="M64.9447 77.4249C85.779 76.6048 106.859 77.2527 127.726 77.2297L252.634 77.2807L531.76 77.122C525.918 77.7746 519.771 77.5036 513.893 77.398C513.807 85.3694 514.41 148.937 513.161 150.969L512.619 151.26L513.523 151.391C513.519 201.073 513.917 250.812 513.216 300.488L657.79 300.419L719.024 300.491Q714.06 309.047 709.621 317.886L709.189 318.016C688.971 317.106 668.511 317.949 648.249 317.538L558.064 317.795C543.39 317.847 528.207 318.674 513.581 317.874C499.811 317.426 485.861 317.821 472.071 317.776L377.966 317.624C357.46 318.304 336.851 317.965 316.33 317.968C313.747 311.954 309.407 306.13 305.909 300.563L305.626 300.464C293.37 300.956 280.972 300.669 268.706 300.668L200.745 300.506C190.579 281.757 178.597 263.931 167.718 245.59Q117.121 161.025 64.9447 77.4249Z"/>
	<path fill="#2098A6" d="M212.235 150.697C232.919 150.471 253.598 151.155 274.282 151.15C281.423 162.201 288.172 173.518 295.169 184.664L342.389 259.766C346.624 266.517 366.144 295.355 367.416 300.377C346.927 300.802 326.405 300.187 305.909 300.563L305.626 300.464C302.964 295.317 299.08 290.301 295.89 285.425Q288.138 273.587 280.844 261.462L212.235 150.697Z"/>
	<path fill="#F36337" d="M274.282 151.15C285.975 150.478 298.04 151.141 309.764 151.212C326.342 151.311 342.925 151.05 359.503 151.013C410.475 150.899 461.667 150.187 512.619 151.26L513.523 151.391C513.519 201.073 513.917 250.812 513.216 300.488L657.79 300.419L719.024 300.491Q714.06 309.047 709.621 317.886L709.189 318.016C688.971 317.106 668.511 317.949 648.249 317.538L558.064 317.795C543.39 317.847 528.207 318.674 513.581 317.874C499.811 317.426 485.861 317.821 472.071 317.776L377.966 317.624C357.46 318.304 336.851 317.965 316.33 317.968C313.747 311.954 309.407 306.13 305.909 300.563C326.405 300.187 346.927 300.802 367.416 300.377C366.144 295.355 346.624 266.517 342.389 259.766L295.169 184.664C288.172 173.518 281.423 162.201 274.282 151.15Z"/>
	<path fill="#FBF6DF" d="M367.416 300.377C384.072 301.026 400.909 300.498 417.587 300.473L513.216 300.488L657.79 300.419L719.024 300.491Q714.06 309.047 709.621 317.886L709.189 318.016C688.971 317.106 668.511 317.949 648.249 317.538L558.064 317.795C543.39 317.847 528.207 318.674 513.581 317.874C499.811 317.426 485.861 317.821 472.071 317.776L377.966 317.624C357.46 318.304 336.851 317.965 316.33 317.968C313.747 311.954 309.407 306.13 305.909 300.563C326.405 300.187 346.927 300.802 367.416 300.377Z"/>
	<path fill="#05495D" d="M513.581 317.874C528.207 318.674 543.39 317.847 558.064 317.795L648.249 317.538C668.511 317.949 688.971 317.106 709.189 318.016L709.621 317.886L812.797 318.037C826.075 318.129 839.357 317.627 852.632 317.843C837.571 340.498 824.148 364.924 810.711 388.582C822.87 388.566 835.047 388.264 847.201 388.354C840.966 398.683 833.781 408.81 828.013 419.358C823.619 426.272 819.624 433.444 815.387 440.457L781.128 497.801L702.69 628.488Q631.328 744.018 562.719 861.205Q538.293 901.856 514.676 942.98L513.269 945.639C511.752 942.249 509.247 938.936 507.305 935.751C504.179 930.623 501.194 925.407 498.093 920.263L465.316 865.832L381.507 725.977L229.861 475.03Q212.372 446.114 194.557 417.397C188.504 407.517 182.696 397.463 176.333 387.778Q215.408 387.504 254.484 387.634C251.094 379.761 245.742 372.523 241.19 365.294C231.375 349.707 220.797 334.055 212.087 317.839C226.763 318.563 241.702 318.053 256.404 318.042C276.361 318.027 296.382 318.322 316.33 317.968C336.851 317.965 357.46 318.304 377.966 317.624L472.071 317.776C485.861 317.821 499.811 317.426 513.581 317.874Z"/>
	<path fill="#2098A6" d="M377.966 317.624L472.071 317.776C485.861 317.821 499.811 317.426 513.581 317.874L513.475 468.023L513.256 513.08C513.204 521.292 512.555 530.138 513.551 538.274L513.165 538.888C514.372 574.05 512.237 609.36 513.453 644.504L513.397 645.308C508.624 640.841 491.263 608.813 486.544 600.957L373.1 411.58L334.75 348.931C328.603 338.863 321.192 328.708 316.33 317.968C336.851 317.965 357.46 318.304 377.966 317.624Z"/>
	<path fill="#F36337" d="M377.966 317.624L472.071 317.776C485.861 317.821 499.811 317.426 513.581 317.874L513.475 468.023L513.256 513.08C513.204 521.292 512.555 530.138 513.551 538.274L513.165 538.888C492.051 505.227 471.956 470.874 451.129 437.024L410.983 371.281C399.94 353.386 388.587 335.783 377.966 317.624Z"/>
	<path fill="#FBF6DF" d="M205.653 405.022C226.01 404.246 246.598 404.652 266.976 404.746C273.237 416.5 280.601 427.744 287.562 439.099L318.569 490.501L460.095 727.774C473.27 750.126 487.132 772.083 500.168 794.508C504.309 801.631 509.168 808.668 512.774 816.054L513.763 813.914C527.749 791.318 540.448 767.861 553.927 744.951L639.173 601.346L718.666 470.849Q739.178 438.143 759.127 405.09C778.206 404.98 797.393 404.419 816.461 404.83L621.432 730.042L546.645 855.47C540.254 866.339 534.115 877.389 527.642 888.198C522.792 896.296 517.165 904.379 513.18 912.936L512.764 912.383C502.025 898.593 494.091 881.854 485.087 866.869L424.628 765.948Q316.397 584.723 205.653 405.022Z"/>
	<path fill="#390D1B" d="M513.581 317.874C528.207 318.674 543.39 317.847 558.064 317.795L648.249 317.538C668.511 317.949 688.971 317.106 709.189 318.016L709.621 317.886L812.797 318.037C826.075 318.129 839.357 317.627 852.632 317.843C837.571 340.498 824.148 364.924 810.711 388.582C822.87 388.566 835.047 388.264 847.201 388.354C840.966 398.683 833.781 408.81 828.013 419.358C823.619 426.272 819.624 433.444 815.387 440.457L781.128 497.801L702.69 628.488Q631.328 744.018 562.719 861.205Q538.293 901.856 514.676 942.98L514.03 942.424C512.495 938.906 512.633 917.687 513.18 912.936C517.165 904.379 522.792 896.296 527.642 888.198C534.115 877.389 540.254 866.339 546.645 855.47L621.432 730.042L816.461 404.83C797.393 404.419 778.206 404.98 759.127 405.09Q739.178 438.143 718.666 470.849L639.173 601.346L553.927 744.951C540.448 767.861 527.749 791.318 513.763 813.914C512.754 811.681 513.09 808.264 513.056 805.805C512.63 774.561 513.416 743.235 513.347 711.978L513.213 670.769C513.177 662.309 512.842 653.747 513.397 645.308L513.453 644.504C512.237 609.36 514.372 574.05 513.165 538.888L513.551 538.274C512.555 530.138 513.204 521.292 513.256 513.08L513.475 468.023L513.581 317.874Z"/>
	<path fill="#65D0D2" d="M812.797 318.037C826.075 318.129 839.357 317.627 852.632 317.843C837.571 340.498 824.148 364.924 810.711 388.582Q790.142 388.445 769.572 388.538C775.101 377.89 782.174 367.784 788.495 357.563C796.626 344.414 804.328 330.972 812.797 318.037Z"/>
	<path fill="#05495D" d="M513.581 317.874C528.207 318.674 543.39 317.847 558.064 317.795L648.249 317.538C668.511 317.949 688.971 317.106 709.189 318.016C704.441 327.887 697.94 337.304 692.269 346.697Q676.423 373.409 660.032 399.791C651.063 414.271 642.717 429.096 634.025 443.738Q617.465 471.515 600.523 499.06L536.168 606.594L520.551 632.505C518.217 636.409 516.069 640.818 513.453 644.504C512.237 609.36 514.372 574.05 513.165 538.888L513.551 538.274C512.555 530.138 513.204 521.292 513.256 513.08L513.475 468.023L513.581 317.874Z"/>
	<path fill="#921C2D" d="M513.581 317.874C528.207 318.674 543.39 317.847 558.064 317.795L648.249 317.538C631.499 342.054 617.09 368.163 601.869 393.635L545.274 486.365C534.803 503.488 525.501 522.196 513.551 538.274C512.555 530.138 513.204 521.292 513.256 513.08L513.475 468.023L513.581 317.874Z"/>
</svg>
